<svg width="168" height="53" viewBox="0 0 168 53" fill="none" xmlns="http://www.w3.org/2000/svg">
<g filter="url(#filter0_d_6_19)">
<path fill-rule="evenodd" clip-rule="evenodd" d="M68.9839 5.73454C66.9316 8.11901 66.077 11.56 67.0261 13.6203C67.8528 15.4136 69.5963 14.8933 69.7604 12.8039C70.0158 9.56068 70.3743 8.69095 71.8142 7.82562C74.5017 6.21089 76.6832 8.28109 77.0601 12.8039C77.1721 14.1533 77.4114 14.4521 78.3794 14.4521C79.486 14.4521 79.5707 14.2511 79.7031 11.3144C79.8341 8.40581 79.7263 8.02671 78.2347 6.13562C76.7787 4.29013 76.3474 4.07146 73.72 3.8506C70.8675 3.61105 70.7824 3.64511 68.9839 5.73454ZM7.1773 19.3463C7.01179 20.1122 6.95126 23.9092 7.04253 27.7848C7.17541 33.4229 7.37923 35.1327 8.06162 36.3431C10.0317 39.8341 14.2674 41.0252 17.2344 38.9231C19.9025 37.0337 20.2543 35.4992 20.1077 26.4008L19.9767 18.2981H18.7945H17.6122L17.3758 26.0717C17.1739 32.7048 17.0069 34.0152 16.2385 34.9998C15.0123 36.5711 12.6369 36.5227 11.3246 34.8998C10.4029 33.7603 10.2984 32.9449 10.1783 25.9717L10.0459 18.2981L8.76198 18.1261C7.7235 17.9871 7.42037 18.2206 7.1773 19.3463ZM25.0835 19.0672C22.4613 20.9814 22.1048 22.4967 22.1048 31.7313V40H23.5234H24.9421L24.9492 32.7202C24.9568 24.7658 25.329 23.1521 27.4248 21.9841C28.4955 21.388 28.9249 21.4116 30.1237 22.1319C31.6327 23.0384 31.9467 23.9356 32.1472 27.9128C32.255 30.0506 32.4248 30.4105 33.4008 30.5704C34.8597 30.8105 35.3298 29.8808 35.3388 26.7376C35.3478 23.4961 36.5078 21.6863 38.5762 21.6863C39.3939 21.6863 40.491 22.1363 41.0145 22.6868C41.887 23.6043 41.9664 24.368 41.9664 31.8439V40H43.6215H45.2767V31.9791C45.2767 22.956 44.7844 20.8616 42.2407 19.0595C40.2673 17.6613 37.0677 17.7162 35.0243 19.1832C33.4713 20.2985 33.3725 20.3056 32.4782 19.365C31.0444 17.8574 26.9657 17.6931 25.0835 19.0672ZM47.2808 18.6618C46.8571 19.154 46.6954 22.1923 46.6954 29.671V40H48.3505H50.0056V36.4041C50.0056 33.318 50.1702 32.6164 51.1666 31.4593C52.4538 29.9633 53.1906 29.8177 54.8968 30.7204C56.4456 31.5401 57.0991 33.4054 57.0991 37.004C57.0991 39.9665 57.1147 40 58.5178 40H59.9365V35.6239C59.9365 31.5253 59.8447 31.1258 58.4885 29.332C57.6926 28.2782 56.6149 27.259 56.0947 27.0673C55.2439 26.7536 55.3929 26.4179 57.5744 23.7378C59.2768 21.6467 59.9559 20.3919 59.8504 19.5331C59.5421 17.0234 58.0468 17.7706 53.9851 22.4648L50.0487 27.0151L49.9087 22.6566C49.7843 18.7722 49.6656 18.281 48.8177 18.1398C48.2947 18.0525 47.6029 18.2876 47.2808 18.6618ZM64.8068 19.0672C62.1846 20.9814 61.8281 22.4967 61.8281 31.7313V40H63.2118H64.5955L64.7487 32.0472C64.8901 24.7185 64.9832 23.9999 65.9394 22.8901C67.1926 21.4363 69.5812 21.3017 70.7176 22.6209C71.2326 23.2192 71.6076 24.7856 71.7589 26.9706C71.9726 30.0583 72.1036 30.4028 73.1241 30.5704C74.583 30.8105 75.0531 29.8808 75.0621 26.7376C75.0711 23.4961 76.2311 21.6863 78.2995 21.6863C79.1172 21.6863 80.2143 22.1363 80.7378 22.6868C81.6103 23.6043 81.6897 24.368 81.6897 31.8439V40H83.3449H85V32.0159C85 22.9186 84.537 20.882 82.0728 19.1365C79.9887 17.6602 76.8406 17.6805 74.7476 19.1832C73.1946 20.2985 73.0958 20.3056 72.2015 19.365C70.7677 17.8574 66.689 17.6931 64.8068 19.0672Z" fill="#50B56C"/>
<path d="M92.4485 20.12C91.7352 20.12 91.1185 19.9933 90.5985 19.74C90.0852 19.48 89.6885 19.1233 89.4085 18.67C89.1285 18.21 88.9885 17.68 88.9885 17.08C88.9885 16.4867 89.0918 15.9333 89.2985 15.42C89.5118 14.9067 89.8085 14.4633 90.1885 14.09C90.5752 13.71 91.0318 13.4133 91.5585 13.2C92.0918 12.9867 92.6852 12.88 93.3385 12.88C93.9652 12.88 94.5185 12.9867 94.9985 13.2C95.4785 13.4133 95.8418 13.72 96.0885 14.12L94.9185 15.08C94.7385 14.8133 94.5085 14.61 94.2285 14.47C93.9485 14.33 93.6152 14.26 93.2285 14.26C92.8352 14.26 92.4785 14.33 92.1585 14.47C91.8385 14.6033 91.5618 14.7967 91.3285 15.05C91.1018 15.2967 90.9285 15.5867 90.8085 15.92C90.6885 16.2533 90.6285 16.6067 90.6285 16.98C90.6285 17.3333 90.7052 17.6433 90.8585 17.91C91.0118 18.17 91.2352 18.3733 91.5285 18.52C91.8218 18.6667 92.1752 18.74 92.5885 18.74C92.9485 18.74 93.2852 18.6767 93.5985 18.55C93.9118 18.4167 94.1952 18.21 94.4485 17.93L95.4085 18.91C95.0418 19.3367 94.6052 19.6467 94.0985 19.84C93.5985 20.0267 93.0485 20.12 92.4485 20.12ZM96.0025 20L97.0725 14.62H98.5525L98.2425 16.15L98.1025 15.71C98.3425 15.2767 98.6558 14.9733 99.0425 14.8C99.4292 14.6267 99.8925 14.54 100.433 14.54L100.153 15.98C100.086 15.9733 100.023 15.97 99.9625 15.97C99.9092 15.9633 99.8525 15.96 99.7925 15.96C99.3325 15.96 98.9558 16.0733 98.6625 16.3C98.3758 16.5267 98.1825 16.8933 98.0825 17.4L97.5625 20H96.0025ZM103.041 20.08C102.494 20.08 102.018 19.98 101.611 19.78C101.204 19.58 100.888 19.3 100.661 18.94C100.441 18.58 100.331 18.1567 100.331 17.67C100.331 17.07 100.471 16.5367 100.751 16.07C101.031 15.5967 101.414 15.2233 101.901 14.95C102.394 14.6767 102.954 14.54 103.581 14.54C104.134 14.54 104.611 14.64 105.011 14.84C105.418 15.04 105.731 15.32 105.951 15.68C106.178 16.0333 106.291 16.4567 106.291 16.95C106.291 17.5433 106.151 18.0767 105.871 18.55C105.591 19.0233 105.208 19.3967 104.721 19.67C104.234 19.9433 103.674 20.08 103.041 20.08ZM103.141 18.8C103.448 18.8 103.718 18.7267 103.951 18.58C104.191 18.4267 104.378 18.2167 104.511 17.95C104.644 17.6833 104.711 17.3733 104.711 17.02C104.711 16.66 104.604 16.37 104.391 16.15C104.178 15.93 103.878 15.82 103.491 15.82C103.184 15.82 102.911 15.8967 102.671 16.05C102.438 16.1967 102.251 16.4033 102.111 16.67C101.978 16.9367 101.911 17.2467 101.911 17.6C101.911 17.9667 102.018 18.26 102.231 18.48C102.444 18.6933 102.748 18.8 103.141 18.8ZM107.907 20L106.958 14.62H108.378L109.138 19.25H108.408L110.988 14.62H112.328L113.108 19.25H112.378L114.938 14.62H116.408L113.438 20H111.898L111.168 16.03H111.628L109.428 20H107.907ZM116.368 20L117.488 14.43C117.608 13.8433 117.861 13.3767 118.248 13.03C118.641 12.6767 119.168 12.5 119.828 12.5C120.075 12.5 120.305 12.5267 120.518 12.58C120.731 12.6267 120.915 12.7 121.068 12.8L120.458 13.92C120.278 13.7933 120.071 13.73 119.838 13.73C119.598 13.73 119.411 13.7967 119.278 13.93C119.145 14.0567 119.048 14.26 118.988 14.54L118.878 15.04L118.798 15.67L117.938 20H116.368ZM116.348 15.94L116.588 14.74H120.318L120.078 15.94H116.348ZM122.355 20.08C121.915 20.08 121.535 19.9867 121.215 19.8C120.895 19.6067 120.669 19.3267 120.535 18.96C120.402 18.5933 120.389 18.14 120.495 17.6L121.085 14.62H122.645L122.075 17.5C121.995 17.8933 122.025 18.1967 122.165 18.41C122.312 18.6233 122.569 18.73 122.935 18.73C123.322 18.73 123.645 18.6167 123.905 18.39C124.172 18.1633 124.349 17.8167 124.435 17.35L124.985 14.62H126.545L125.475 20H123.995L124.295 18.48L124.515 18.94C124.262 19.3333 123.945 19.6233 123.565 19.81C123.185 19.99 122.782 20.08 122.355 20.08ZM131.12 14.54C131.58 14.54 131.97 14.6367 132.29 14.83C132.61 15.0167 132.837 15.2933 132.97 15.66C133.104 16.0267 133.117 16.48 133.01 17.02L132.41 20H130.85L131.43 17.12C131.51 16.7267 131.477 16.4233 131.33 16.21C131.19 15.9967 130.93 15.89 130.55 15.89C130.157 15.89 129.827 16.0033 129.56 16.23C129.3 16.4567 129.12 16.8033 129.02 17.27L128.48 20H126.92L127.99 14.62H129.47L129.16 16.14L128.94 15.68C129.2 15.2867 129.52 15 129.9 14.82C130.287 14.6333 130.694 14.54 131.12 14.54ZM136.304 20.08C135.891 20.08 135.507 19.9867 135.154 19.8C134.801 19.6067 134.517 19.33 134.304 18.97C134.091 18.61 133.984 18.1767 133.984 17.67C133.984 17.2167 134.057 16.8 134.204 16.42C134.357 16.04 134.571 15.71 134.844 15.43C135.117 15.15 135.434 14.9333 135.794 14.78C136.154 14.62 136.541 14.54 136.954 14.54C137.374 14.54 137.737 14.6133 138.044 14.76C138.351 14.9067 138.587 15.1333 138.754 15.44C138.927 15.74 139.014 16.12 139.014 16.58C139.014 17.0733 138.954 17.5333 138.834 17.96C138.721 18.38 138.547 18.75 138.314 19.07C138.081 19.3833 137.794 19.63 137.454 19.81C137.121 19.99 136.737 20.08 136.304 20.08ZM136.784 18.79C137.091 18.79 137.361 18.7167 137.594 18.57C137.834 18.4167 138.021 18.21 138.154 17.95C138.294 17.6833 138.364 17.3733 138.364 17.02C138.364 16.6533 138.254 16.3633 138.034 16.15C137.821 15.9367 137.521 15.83 137.134 15.83C136.834 15.83 136.564 15.9067 136.324 16.06C136.084 16.2067 135.894 16.4133 135.754 16.68C135.621 16.94 135.554 17.2467 135.554 17.6C135.554 17.9667 135.661 18.2567 135.874 18.47C136.094 18.6833 136.397 18.79 136.784 18.79ZM137.844 20L138.064 18.93L138.404 17.33L138.614 15.73L139.244 12.58H140.804L139.324 20H137.844ZM140.778 20L141.848 14.62H143.398L142.328 20H140.778ZM142.888 13.87C142.615 13.87 142.395 13.7933 142.228 13.64C142.061 13.48 141.978 13.2867 141.978 13.06C141.978 12.7933 142.071 12.5733 142.258 12.4C142.451 12.22 142.701 12.13 143.008 12.13C143.281 12.13 143.501 12.2067 143.668 12.36C143.841 12.5067 143.928 12.69 143.928 12.91C143.928 13.1967 143.831 13.43 143.638 13.61C143.451 13.7833 143.201 13.87 142.888 13.87ZM147.976 14.54C148.436 14.54 148.826 14.6367 149.146 14.83C149.466 15.0167 149.693 15.2933 149.826 15.66C149.959 16.0267 149.973 16.48 149.866 17.02L149.266 20H147.706L148.286 17.12C148.366 16.7267 148.333 16.4233 148.186 16.21C148.046 15.9967 147.786 15.89 147.406 15.89C147.013 15.89 146.683 16.0033 146.416 16.23C146.156 16.4567 145.976 16.8033 145.876 17.27L145.336 20H143.776L144.846 14.62H146.326L146.016 16.14L145.796 15.68C146.056 15.2867 146.376 15 146.756 14.82C147.143 14.6333 147.549 14.54 147.976 14.54ZM153 22.02C152.48 22.02 152 21.96 151.56 21.84C151.126 21.72 150.753 21.5433 150.44 21.31L151.18 20.18C151.393 20.3533 151.666 20.4933 152 20.6C152.34 20.7067 152.696 20.76 153.07 20.76C153.61 20.76 154.013 20.6433 154.28 20.41C154.553 20.1767 154.736 19.83 154.83 19.37L155.02 18.4L155.38 17.14L155.62 15.78L155.84 14.62H157.33L156.44 19.1C156.233 20.1333 155.84 20.8767 155.26 21.33C154.686 21.79 153.933 22.02 153 22.02ZM153.23 19.74C152.79 19.74 152.39 19.65 152.03 19.47C151.67 19.29 151.383 19.0333 151.17 18.7C150.956 18.36 150.85 17.9533 150.85 17.48C150.85 17.0667 150.923 16.6833 151.07 16.33C151.223 15.9767 151.433 15.6667 151.7 15.4C151.973 15.1267 152.29 14.9167 152.65 14.77C153.016 14.6167 153.416 14.54 153.85 14.54C154.243 14.54 154.6 14.6133 154.92 14.76C155.24 14.9067 155.486 15.1433 155.66 15.47C155.84 15.7967 155.906 16.2333 155.86 16.78C155.82 17.3733 155.69 17.8933 155.47 18.34C155.25 18.78 154.95 19.1233 154.57 19.37C154.196 19.6167 153.75 19.74 153.23 19.74ZM153.65 18.46C153.956 18.46 154.226 18.3933 154.46 18.26C154.693 18.1267 154.876 17.9433 155.01 17.71C155.143 17.47 155.21 17.1967 155.21 16.89C155.21 16.5633 155.103 16.3067 154.89 16.12C154.676 15.9267 154.38 15.83 154 15.83C153.693 15.83 153.42 15.8967 153.18 16.03C152.946 16.1633 152.76 16.35 152.62 16.59C152.486 16.8233 152.42 17.0933 152.42 17.4C152.42 17.7267 152.53 17.9867 152.75 18.18C152.97 18.3667 153.27 18.46 153.65 18.46Z" fill="#50B56C"/>
<path d="M94.498 33L95.898 26H97.528L96.128 33H94.498ZM101.879 27.54C102.339 27.54 102.729 27.6367 103.049 27.83C103.369 28.0167 103.596 28.2933 103.729 28.66C103.863 29.0267 103.876 29.48 103.769 30.02L103.169 33H101.609L102.189 30.12C102.269 29.7267 102.236 29.4233 102.089 29.21C101.949 28.9967 101.689 28.89 101.309 28.89C100.916 28.89 100.586 29.0033 100.319 29.23C100.059 29.4567 99.8793 29.8033 99.7793 30.27L99.2393 33H97.6793L98.7493 27.62H100.229L99.9193 29.14L99.6993 28.68C99.9593 28.2867 100.279 28 100.659 27.82C101.046 27.6333 101.453 27.54 101.879 27.54ZM105.956 33L104.766 27.62H106.306L107.296 32.25H106.496L109.346 27.62H110.906L107.566 33H105.956ZM113.186 33.08C112.626 33.08 112.139 32.98 111.726 32.78C111.319 32.58 111.002 32.3 110.776 31.94C110.549 31.58 110.436 31.1567 110.436 30.67C110.436 30.07 110.569 29.5367 110.836 29.07C111.109 28.5967 111.482 28.2233 111.956 27.95C112.436 27.6767 112.986 27.54 113.606 27.54C114.132 27.54 114.586 27.64 114.966 27.84C115.346 28.0333 115.639 28.3067 115.846 28.66C116.059 29.0067 116.166 29.4233 116.166 29.91C116.166 30.05 116.156 30.19 116.136 30.33C116.122 30.47 116.102 30.6033 116.076 30.73H111.626L111.786 29.82H115.346L114.706 30.1C114.759 29.8 114.742 29.55 114.656 29.35C114.569 29.1433 114.429 28.9867 114.236 28.88C114.042 28.7667 113.809 28.71 113.536 28.71C113.196 28.71 112.906 28.7933 112.666 28.96C112.432 29.12 112.256 29.3433 112.136 29.63C112.016 29.9167 111.956 30.24 111.956 30.6C111.956 31.0133 112.069 31.3233 112.296 31.53C112.529 31.73 112.879 31.83 113.346 31.83C113.619 31.83 113.882 31.7867 114.136 31.7C114.389 31.6133 114.606 31.49 114.786 31.33L115.436 32.36C115.122 32.6067 114.769 32.79 114.376 32.91C113.989 33.0233 113.592 33.08 113.186 33.08ZM118.565 33.08C118.092 33.08 117.645 33.0267 117.225 32.92C116.812 32.8133 116.492 32.68 116.265 32.52L116.865 31.39C117.098 31.5433 117.382 31.6667 117.715 31.76C118.055 31.8533 118.395 31.9 118.735 31.9C119.102 31.9 119.368 31.8533 119.535 31.76C119.702 31.6667 119.785 31.54 119.785 31.38C119.785 31.2533 119.715 31.16 119.575 31.1C119.435 31.0333 119.258 30.98 119.045 30.94C118.832 30.9 118.602 30.8533 118.355 30.8C118.115 30.7467 117.885 30.6733 117.665 30.58C117.452 30.48 117.275 30.34 117.135 30.16C117.002 29.9733 116.935 29.73 116.935 29.43C116.935 29.0233 117.048 28.68 117.275 28.4C117.508 28.12 117.828 27.9067 118.235 27.76C118.648 27.6133 119.115 27.54 119.635 27.54C120.008 27.54 120.372 27.58 120.725 27.66C121.078 27.74 121.378 27.85 121.625 27.99L121.065 29.13C120.812 28.97 120.545 28.8633 120.265 28.81C119.992 28.75 119.728 28.72 119.475 28.72C119.108 28.72 118.842 28.7733 118.675 28.88C118.515 28.98 118.435 29.1033 118.435 29.25C118.435 29.3767 118.502 29.4767 118.635 29.55C118.775 29.6167 118.952 29.6733 119.165 29.72C119.378 29.76 119.608 29.8067 119.855 29.86C120.102 29.9067 120.332 29.98 120.545 30.08C120.758 30.1733 120.932 30.31 121.065 30.49C121.205 30.6633 121.275 30.9 121.275 31.2C121.275 31.6067 121.155 31.9533 120.915 32.24C120.682 32.52 120.362 32.73 119.955 32.87C119.548 33.01 119.085 33.08 118.565 33.08ZM124.108 33.08C123.721 33.08 123.391 33.0033 123.118 32.85C122.844 32.69 122.648 32.4633 122.528 32.17C122.414 31.87 122.398 31.5167 122.478 31.11L123.408 26.43H124.968L124.038 31.1C123.998 31.3267 124.021 31.5067 124.108 31.64C124.194 31.7733 124.354 31.84 124.588 31.84C124.694 31.84 124.801 31.8233 124.908 31.79C125.021 31.7567 125.124 31.71 125.218 31.65L125.448 32.76C125.254 32.88 125.041 32.9633 124.808 33.01C124.574 33.0567 124.341 33.08 124.108 33.08ZM122.078 28.94L122.318 27.74H126.048L125.808 28.94H122.078ZM129.195 33L130.595 26H131.935L134.945 31.07L134.415 31.04L135.415 26H137.015L135.615 33H134.285L131.265 27.93L131.805 27.96L130.795 33H129.195ZM139.981 33.08C139.435 33.08 138.958 32.98 138.551 32.78C138.145 32.58 137.828 32.3 137.601 31.94C137.381 31.58 137.271 31.1567 137.271 30.67C137.271 30.07 137.411 29.5367 137.691 29.07C137.971 28.5967 138.355 28.2233 138.841 27.95C139.335 27.6767 139.895 27.54 140.521 27.54C141.075 27.54 141.551 27.64 141.951 27.84C142.358 28.04 142.671 28.32 142.891 28.68C143.118 29.0333 143.231 29.4567 143.231 29.95C143.231 30.5433 143.091 31.0767 142.811 31.55C142.531 32.0233 142.148 32.3967 141.661 32.67C141.175 32.9433 140.615 33.08 139.981 33.08ZM140.081 31.8C140.388 31.8 140.658 31.7267 140.891 31.58C141.131 31.4267 141.318 31.2167 141.451 30.95C141.585 30.6833 141.651 30.3733 141.651 30.02C141.651 29.66 141.545 29.37 141.331 29.15C141.118 28.93 140.818 28.82 140.431 28.82C140.125 28.82 139.851 28.8967 139.611 29.05C139.378 29.1967 139.191 29.4033 139.051 29.67C138.918 29.9367 138.851 30.2467 138.851 30.6C138.851 30.9667 138.958 31.26 139.171 31.48C139.385 31.6933 139.688 31.8 140.081 31.8ZM144.848 33L143.898 27.62H145.318L146.078 32.25H145.348L147.928 27.62H149.268L150.048 32.25H149.318L151.878 27.62H153.348L150.378 33H148.838L148.108 29.03H148.568L146.368 33H144.848Z" fill="#50B56C"/>
<path d="M14 0.5H163.5V35C163.5 40.2467 159.247 44.5 154 44.5H4.5V10C4.5 4.75329 8.75329 0.5 14 0.5Z" stroke="#50B56C" shape-rendering="crispEdges"/>
</g>
<defs>
<filter id="filter0_d_6_19" x="0" y="0" width="168" height="53" filterUnits="userSpaceOnUse" color-interpolation-filters="sRGB">
<feFlood flood-opacity="0" result="BackgroundImageFix"/>
<feColorMatrix in="SourceAlpha" type="matrix" values="0 0 0 0 0 0 0 0 0 0 0 0 0 0 0 0 0 0 127 0" result="hardAlpha"/>
<feOffset dy="4"/>
<feGaussianBlur stdDeviation="2"/>
<feComposite in2="hardAlpha" operator="out"/>
<feColorMatrix type="matrix" values="0 0 0 0 0 0 0 0 0 0 0 0 0 0 0 0 0 0 0.25 0"/>
<feBlend mode="normal" in2="BackgroundImageFix" result="effect1_dropShadow_6_19"/>
<feBlend mode="normal" in="SourceGraphic" in2="effect1_dropShadow_6_19" result="shape"/>
</filter>
</defs>
</svg>
