<svg width="755" height="209" viewBox="0 0 755 209" fill="none" xmlns="http://www.w3.org/2000/svg">
<path d="M597.267 208.24H607.599L601.749 181.917H591.417L597.267 208.24Z" fill="#E5EEF4"/>
<path d="M504.207 208.24H514.539L520.281 181.917H509.958L504.207 208.24Z" fill="#B9E1CB"/>
<path d="M544.032 74.5767H533.7L511.533 175.009H521.865L544.032 74.5767Z" fill="#B9E1CB"/>
<path d="M555.552 22.3799L550.53 0H550.161L535.626 65.8569H545.958L555.552 22.3799Z" fill="#B9E1CB"/>
<path d="M577.602 74.5767H567.27L589.815 175.009H600.147L577.602 74.5767Z" fill="#E5EEF4"/>
<path d="M560.862 0H560.484H550.53L555.552 22.3799L565.308 65.8569H575.64L560.862 0Z" fill="#E5EEF4"/>
<path d="M567.27 74.5763H577.602L575.64 65.8567H565.308L567.27 74.5763Z" fill="#B9E1CB"/>
<path d="M545.957 65.8567H535.625L533.699 74.5763H544.032L545.957 65.8567Z" fill="#B9E1CB"/>
<path d="M589.455 173.197L591.417 181.917H601.749L599.787 173.197H589.455Z" fill="#B9E1CB"/>
<path d="M511.884 173.197L509.958 181.917H520.281L522.207 173.197H511.884Z" fill="#B9E1CB"/>
<path d="M627.913 208.24H638.245L644.005 181.917H633.673L627.913 208.24Z" fill="#B9E1CB"/>
<path d="M635.247 175.009H645.579L667.737 74.5767H657.414L635.247 175.009Z" fill="#B9E1CB"/>
<path d="M674.235 0H673.866L659.331 65.8569H669.663L679.257 22.3799L674.235 0Z" fill="#B9E1CB"/>
<path d="M701.307 74.5767H690.975L713.52 175.009H723.852L701.307 74.5767Z" fill="#E5EEF4"/>
<path d="M725.274 181.917H714.942L720.981 208.24H731.313L725.274 181.917Z" fill="#E5EEF4"/>
<path d="M684.567 0H684.198H674.235L679.257 22.3799L689.022 65.8569H699.354L684.567 0Z" fill="#E5EEF4"/>
<path d="M690.975 74.5763H701.307L699.354 65.8567H689.022L690.975 74.5763Z" fill="#B9E1CB"/>
<path d="M669.663 65.8567H659.331L657.414 74.5763H667.737L669.663 65.8567Z" fill="#B9E1CB"/>
<path d="M712.989 173.197L714.942 181.917H725.274L723.321 173.197H712.989Z" fill="#B9E1CB"/>
<path d="M635.598 173.197L633.672 181.917H644.004L645.93 173.197H635.598Z" fill="#B9E1CB"/>
<path d="M514.521 21.6517L501.381 65.8568H541.872L528.741 21.6517H514.521Z" fill="#B9E1CB"/>
<path d="M706.446 21.6517H703.719H686.34L695.034 50.9051L699.471 65.8568H719.586L706.446 21.6517Z" fill="#EFF5F9"/>
<path d="M647.02 21.6517L660.16 65.8568H680.266L667.135 21.6517H647.02Z" fill="#EFF5F9"/>
<path d="M528.74 21.6517L541.871 65.8568H562.319L549.188 21.6517H528.74Z" fill="#EFF5F9"/>
<path d="M607.706 21.6517L620.837 65.8568H640.952L627.821 21.6517H607.706Z" fill="#EFF5F9"/>
<path d="M568.386 21.6517L581.526 65.8568H601.632L588.501 21.6517H568.386Z" fill="#EFF5F9"/>
<path d="M549.189 21.6517L562.32 65.8568H581.526L568.386 21.6517H549.189Z" fill="#B9E1CB"/>
<path d="M588.501 21.6517L601.632 65.8568H620.838L607.707 21.6517H588.501Z" fill="#B9E1CB"/>
<path d="M627.822 21.6517L640.953 65.8568H660.159L647.019 21.6517H627.822Z" fill="#B9E1CB"/>
<path d="M695.034 50.9051L686.34 21.6517H667.134L680.265 65.8568H690.588H699.471L695.034 50.9051Z" fill="#B9E1CB"/>
<path d="M706.446 21.6517L719.586 65.8568H731.079L717.948 21.6517H706.446Z" fill="#B9E1CB"/>
<path d="M668.61 173.197H479.403L492.543 128.992H681.75L668.61 173.197Z" fill="#B9E1CB"/>
<path d="M754.678 173.197H519.895L506.764 128.992H741.547L754.678 173.197Z" fill="#EFF5F9"/>
<path d="M558.099 173.197H538.893L525.762 128.992H544.968L558.099 173.197Z" fill="#B9E1CB"/>
<path d="M597.42 173.197H578.214L565.074 128.992H584.28L597.42 173.197Z" fill="#B9E1CB"/>
<path d="M636.733 173.197H617.527L604.396 128.992H623.602L636.733 173.197Z" fill="#B9E1CB"/>
<path d="M676.044 173.197H656.847L643.707 128.992H662.913L676.044 173.197Z" fill="#B9E1CB"/>
<path d="M715.365 173.197H696.159L683.028 128.992H702.234L715.365 173.197Z" fill="#B9E1CB"/>
<path d="M754.677 173.197H735.471L722.34 128.992H741.546L754.677 173.197Z" fill="#B9E1CB"/>
<path d="M11.1151 204.904H100.071L98.6041 200.093H12.6001L11.1151 204.904Z" fill="#B9E1CB"/>
<path d="M80.5052 140.685H30.9512L21.7712 170.415H89.5682L80.5052 140.685Z" fill="#B9E1CB"/>
<path d="M64.3141 87.4394C61.8571 79.3177 49.9141 79.3004 47.4301 87.4394L40.1401 111.033H71.4871L64.3141 87.4394Z" fill="#B9E1CB"/>
<path d="M71.4598 111.007H40.1128L30.9508 140.685H80.5048L71.4598 111.007Z" fill="#EFF5F9"/>
<path d="M21.7712 170.415L12.6002 200.093H98.6042L89.5682 170.415H21.7712Z" fill="#EFF5F9"/>
<path d="M111.474 200.093H0V208.241H111.474V200.093Z" fill="#B9E1CB"/>
<path d="M177.228 174.116H81.2247V141.638C98.0727 110.859 119.025 78.4075 158.625 22.3883H215.604V143.077H241.011V174.116H215.604V208.241H177.228V174.116ZM116.397 144.108H178.038V50.2289H177.228C149.328 88.9907 131.769 115.392 116.397 143.077V144.108Z" fill="#73D7B3"/>
<path d="M151.74 174.116H55.7369V141.638C72.585 110.859 93.537 78.4075 133.137 22.3883H190.098V143.077H215.514V174.116H190.116V208.241H151.74V174.116ZM90.9 144.108H152.514V50.2289H151.713C123.768 88.9907 106.254 115.392 90.873 143.077L90.9 144.108Z" fill="#B9E1CB"/>
<path d="M330.183 177.782C306.918 177.782 293.328 154.752 293.328 113.104C293.328 71.8289 307.179 48.9636 330.183 48.9636L261.783 46.528C261.783 46.528 260.325 176.846 261.783 177.817C263.241 178.788 320.814 189.31 320.814 189.31L330.183 177.782Z" fill="#73D7B3"/>
<path d="M330.183 18.4706H305.352L295.668 35.962L342.072 42.2807L349.974 70.7019C349.974 70.7019 341.955 182.619 342.072 184.023C342.189 185.427 305.352 208.232 305.352 208.232H330.183C378 208.232 407.007 171.62 407.007 112.974C407.007 54.3287 377.739 18.4706 330.183 18.4706Z" fill="#73D7B3"/>
<path d="M228.393 113.104C228.393 54.4588 257.787 18.4706 305.352 18.4706C352.917 18.4706 382.185 54.3374 382.185 112.948C382.185 171.559 353.214 208.232 305.352 208.232C257.49 208.232 228.393 171.871 228.393 113.104ZM342.072 113.104C342.072 71.6988 328.482 48.9635 305.352 48.9635C282.222 48.9635 268.506 71.8634 268.506 113.104C268.506 154.709 282.096 177.782 305.352 177.782C328.608 177.782 342.072 154.752 342.072 113.104Z" fill="#B9E1CB"/>
<path d="M512.406 174.116H416.403V141.638C433.251 110.859 454.203 78.4075 493.803 22.3883H550.764V143.077H576.171V174.116H550.782V208.241H512.406V174.116ZM451.566 144.108H513.207V50.2289H512.406C484.506 88.9907 466.947 115.392 451.566 143.077V144.108Z" fill="#73D7B3"/>
<path d="M486.918 174.116H390.906V141.638C407.754 110.859 428.706 78.4075 468.306 22.3883H525.294V143.077H550.692V174.116H525.294V208.241H486.918V174.116ZM426.114 144.108H487.755V50.2289H486.954C459.054 88.9907 441.486 115.392 426.114 143.077V144.108Z" fill="#B9E1CB"/>
</svg>
